<svg xmlns="http://www.w3.org/2000/svg" viewBox="0 0 140.03 40.87" class="svg replaced-svg"
>
    <defs>
        <style>
            .cls-1,.cls-2{fill:white;stroke:#fff;}.cls-1{stroke-miterlimit:10;stroke-width:2.4px;}.cls-2{stroke-linecap:round;stroke-linejoin:round;stroke-width:0.82px;}</style>
    </defs>
    <title>Asset 3</title>
    <g id="Layer_2" data-name="Layer 2" color="white">
        <g id="Layer_1-2" data-name="Layer 1">
            <line class="cls-1" x1="73.61" y1="4.49" x2="66.42" y2="36.83"></line>
            <path class="cls-2"
                d="M.41,32.22s6.23-22,18.33-30C20.51,1,21.11,2,22.58,2.74a16.46,16.46,0,0,1-2.34,2.67c2.92-3.16,4.87-7.09,8.26-1.25L25.1,7.68c1.47-1.53,1.89-1.57,3.35-3.1.61-.64,1.38-1.48,2.35-1.38a3.2,3.2,0,0,1,2.09,1.36,5.19,5.19,0,0,1,.57,1.91c-1.76,2.36-2.6,3.26-4.29,5.79a34.36,34.36,0,0,0,8.9-6.47C39.41,4.54,44-1,46.16.77c1.36,1.14-1.71,3.88-2.39,4.73-3.83,4.73-6.45,7.85-9.92,12.86-1.11,1.6-4.21,5.5-4.43,7.54-.53,4.79,12.16,3.35,12.92,10.94a2.19,2.19,0,0,1-3.15,1.08c-9.77-4.06-17,.73-27.68,2.56Z"></path>
            <path class="cls-2"
                d="M139.62,32.22s-6.23-22-18.33-30c-1.77-1.17-2.37-.21-3.84.56a16.55,16.55,0,0,0,2.34,2.67c-2.92-3.16-4.87-7.09-8.26-1.25l3.4,3.51c-1.47-1.53-1.89-1.57-3.35-3.1-.61-.64-1.38-1.48-2.35-1.38a3.19,3.19,0,0,0-2.09,1.36,5.21,5.21,0,0,0-.58,1.91c1.76,2.36,2.61,3.26,4.29,5.79A34.37,34.37,0,0,1,102,5.78C100.62,4.54,96-1,93.87.77c-1.36,1.14,1.71,3.88,2.39,4.73,3.83,4.73,6.45,7.85,9.92,12.86,1.11,1.6,4.21,5.5,4.43,7.54.53,4.79-12.16,3.35-12.92,10.94a2.19,2.19,0,0,0,3.15,1.08c9.77-4.06,17,.73,27.69,2.56Z"></path>
        </g>
    </g>
</svg>